# xmcd
#
# Track frame offsets: 
#        182
#        13275
#        28787
#        44245
#        57220
#        68995
#        82625
#        96067
#        111947
#        125440
#
# Disc length: 1919 seconds
#
# Revision: 2
# Processed by: cddbd v1.5PL3 Copyright (c) Steve Scherf et al.
# Submitted via: ExactAudioCopy v0.95a3
#
DISCID=85077d0a
DTITLE=Dallas County Line - Dallas County Line
DYEAR=1995
DGENRE=Country
TTITLE0=Honk If You Love To Honky Tonk
TTITLE1=You're Too Good Lookin' (To Still Be Lookin')
TTITLE2=Betty's Apple Pie
TTITLE3=Call Me When The Sun Goes Down
TTITLE4=A Whole Lotta Trouble
TTITLE5=Mississippi Redneck Fair
TTITLE6=Young Hearts Rockin' To A Country Beat
TTITLE7=Girls In The Honky Tonks
TTITLE8=Dirty Rotten Shame
TTITLE9=Honk If You Love To Honky Tonk (Dance Mix)
EXTD=
EXTT0=
EXTT1=
EXTT2=
EXTT3=
EXTT4=
EXTT5=
EXTT6=
EXTT7=
EXTT8=
EXTT9=
PLAYORDER=
